<svg width="19" height="19" viewBox="0 0 19 19" fill="none" xmlns="http://www.w3.org/2000/svg">
<path fill-rule="evenodd" clip-rule="evenodd" d="M9.49927 19C14.7461 19 18.9993 14.7469 18.9993 9.5C18.9993 4.25315 14.7461 0 9.49927 0C4.25242 0 -0.000732422 4.25315 -0.000732422 9.5C-0.000732422 14.7469 4.25242 19 9.49927 19ZM8.07427 14.2414C8.07427 13.4178 8.70032 12.825 9.49072 12.825C10.2982 12.825 10.9243 13.4178 10.9243 14.2414C10.9243 15.0651 10.2982 15.675 9.49072 15.675C8.70032 15.675 8.07427 15.0651 8.07427 14.2414ZM8.71267 3.8C8.64857 3.80007 8.58515 3.8131 8.52623 3.83833C8.4673 3.86355 8.41409 3.90044 8.3698 3.94677C8.32551 3.99311 8.29106 4.04792 8.26851 4.10792C8.24597 4.16792 8.2358 4.23187 8.23862 4.2959L8.52932 10.9459C8.53471 11.0682 8.58712 11.1837 8.67562 11.2683C8.76412 11.353 8.88188 11.4001 9.00432 11.4H9.99517C10.1176 11.4001 10.2354 11.353 10.3239 11.2683C10.4124 11.1837 10.4648 11.0682 10.4702 10.9459L10.7599 4.2959C10.7627 4.23179 10.7525 4.16776 10.7299 4.1077C10.7073 4.04764 10.6728 3.99278 10.6284 3.94643C10.584 3.90008 10.5307 3.86322 10.4717 3.83805C10.4126 3.81288 10.3491 3.79994 10.2849 3.8H8.71267Z" fill="#C74949"/>
</svg>
