<svg width="19" height="19" viewBox="0 0 19 19" fill="none" xmlns="http://www.w3.org/2000/svg">
<path d="M9.49927 0C7.62035 0 5.78362 0.557165 4.22135 1.60104C2.65909 2.64491 1.44145 4.12861 0.722416 5.86451C0.00338377 7.6004 -0.184748 9.51054 0.181812 11.3534C0.548371 13.1962 1.45316 14.8889 2.78176 16.2175C4.11036 17.5461 5.80309 18.4509 7.64591 18.8175C9.48873 19.184 11.3989 18.9959 13.1348 18.2769C14.8707 17.5578 16.3544 16.3402 17.3982 14.7779C18.4421 13.2156 18.9993 11.3789 18.9993 9.5C18.9993 6.98044 17.9984 4.56408 16.2168 2.78248C14.4352 1.00089 12.0188 0 9.49927 0ZM4.0707 10.8571C3.80228 10.8571 3.53989 10.7775 3.31671 10.6284C3.09353 10.4793 2.91958 10.2673 2.81686 10.0194C2.71414 9.77137 2.68727 9.49849 2.73963 9.23523C2.792 8.97197 2.92125 8.73015 3.11105 8.54035C3.30085 8.35055 3.54267 8.2213 3.80593 8.16893C4.06919 8.11657 4.34207 8.14344 4.59006 8.24616C4.83804 8.34888 5.05 8.52283 5.19912 8.74601C5.34825 8.96919 5.42784 9.23158 5.42784 9.5C5.42784 9.85993 5.28486 10.2051 5.03034 10.4596C4.77583 10.7142 4.43064 10.8571 4.0707 10.8571ZM9.49927 10.8571C9.23085 10.8571 8.96846 10.7775 8.74528 10.6284C8.5221 10.4793 8.34815 10.2673 8.24543 10.0194C8.14271 9.77137 8.11584 9.49849 8.1682 9.23523C8.22057 8.97197 8.34983 8.73015 8.53963 8.54035C8.72943 8.35055 8.97124 8.2213 9.2345 8.16893C9.49776 8.11657 9.77064 8.14344 10.0186 8.24616C10.2666 8.34888 10.4786 8.52283 10.6277 8.74601C10.7768 8.96919 10.8564 9.23158 10.8564 9.5C10.8564 9.85993 10.7134 10.2051 10.4589 10.4596C10.2044 10.7142 9.85921 10.8571 9.49927 10.8571ZM14.9278 10.8571C14.6594 10.8571 14.397 10.7775 14.1739 10.6284C13.9507 10.4793 13.7767 10.2673 13.674 10.0194C13.5713 9.77137 13.5444 9.49849 13.5968 9.23523C13.6491 8.97197 13.7784 8.73015 13.9682 8.54035C14.158 8.35055 14.3998 8.2213 14.6631 8.16893C14.9263 8.11657 15.1992 8.14344 15.4472 8.24616C15.6952 8.34888 15.9071 8.52283 16.0563 8.74601C16.2054 8.96919 16.285 9.23158 16.285 9.5C16.285 9.85993 16.142 10.2051 15.8875 10.4596C15.633 10.7142 15.2878 10.8571 14.9278 10.8571Z" fill="#C9C432"/>
</svg>
