<svg width="19" height="19" viewBox="0 0 19 19" fill="none" xmlns="http://www.w3.org/2000/svg">
<path d="M9.49927 0C12.0188 0 14.4352 1.00089 16.2168 2.78249C17.9984 4.56408 18.9993 6.98044 18.9993 9.5C18.9993 12.0196 17.9984 14.4359 16.2168 16.2175C14.4352 17.9991 12.0188 19 9.49927 19C6.97971 19 4.56335 17.9991 2.78175 16.2175C1.00016 14.4359 -0.000732422 12.0196 -0.000732422 9.5C-0.000732422 6.98044 1.00016 4.56408 2.78175 2.78249C4.56335 1.00089 6.97971 0 9.49927 0ZM8.31584 11.3742L6.20548 9.2625C6.12983 9.18684 6.04001 9.12683 5.94116 9.08589C5.84231 9.04494 5.73637 9.02387 5.62937 9.02387C5.52238 9.02387 5.41644 9.04494 5.31759 9.08589C5.21874 9.12683 5.12892 9.18684 5.05327 9.2625C4.90047 9.41529 4.81464 9.62253 4.81464 9.83861C4.81464 10.0547 4.90047 10.2619 5.05327 10.4147L7.74041 13.1019C7.81585 13.1779 7.9056 13.2382 8.00448 13.2794C8.10335 13.3206 8.20941 13.3418 8.31652 13.3418C8.42363 13.3418 8.52968 13.3206 8.62856 13.2794C8.72744 13.2382 8.81718 13.1779 8.89262 13.1019L14.4569 7.53621C14.5336 7.46087 14.5946 7.3711 14.6364 7.27207C14.6782 7.17304 14.6999 7.06671 14.7004 6.95922C14.7009 6.85173 14.6802 6.74521 14.6393 6.64579C14.5984 6.54638 14.5382 6.45604 14.4623 6.37999C14.3863 6.30393 14.2961 6.24367 14.1967 6.20268C14.0973 6.16169 13.9908 6.14078 13.8833 6.14115C13.7758 6.14153 13.6695 6.16318 13.5704 6.20486C13.4713 6.24654 13.3815 6.30742 13.3061 6.384L8.31584 11.3742Z" fill="#2DAA31"/>
</svg>
