<svg width="17" height="19" viewBox="0 0 17 19" fill="none" xmlns="http://www.w3.org/2000/svg">
<path d="M6.55011 2.75668C6.83426 1.95272 7.601 1.37837 8.50016 1.37837C9.39932 1.37837 10.1662 1.95272 10.4503 2.75668C10.5771 3.11555 10.9708 3.30365 11.3298 3.17681C11.6886 3.04996 11.8767 2.65621 11.7499 2.29735C11.2771 0.959889 10.0017 0 8.50016 0C6.99875 0 5.72324 0.959889 5.25052 2.29735C5.12367 2.65621 5.31177 3.04996 5.67064 3.17681C6.02951 3.30365 6.42326 3.11555 6.55011 2.75668Z" fill="#3F3F3F"/>
<path d="M0 4.36497C0 3.98434 0.308562 3.67578 0.689186 3.67578H16.3108C16.6914 3.67578 17 3.98434 17 4.36497C17 4.74559 16.6914 5.05415 16.3108 5.05415H0.689186C0.308562 5.05415 0 4.74559 0 4.36497Z" fill="#3F3F3F"/>
<path d="M2.17511 5.9747C2.55489 5.94938 2.88329 6.23673 2.9086 6.61651L3.33126 12.9562C3.41382 14.1948 3.47266 15.0565 3.60183 15.7049C3.72713 16.3339 3.90202 16.6669 4.15326 16.9019C4.40451 17.1369 4.74833 17.2893 5.38422 17.3725C6.03977 17.4582 6.9036 17.4596 8.14487 17.4596H8.85556C10.0968 17.4596 10.9606 17.4582 11.6162 17.3725C12.252 17.2893 12.5959 17.1369 12.8471 16.9019C13.0984 16.6669 13.2732 16.3339 13.3986 15.7049C13.5277 15.0565 13.5866 14.1948 13.6691 12.9562L14.0918 6.61651C14.1171 6.23673 14.4455 5.94938 14.8253 5.9747C15.2051 6.00001 15.4924 6.32841 15.4671 6.7082L15.0412 13.0962C14.9627 14.275 14.8992 15.2271 14.7504 15.9743C14.5956 16.751 14.3325 17.3999 13.7888 17.9084C13.2452 18.417 12.5803 18.6364 11.795 18.7392C11.0395 18.838 10.0853 18.838 8.90398 18.838H8.09644C6.91509 18.838 5.96082 18.838 5.20544 18.7392C4.42009 18.6364 3.75521 18.417 3.21159 17.9084C2.66796 17.3999 2.40476 16.751 2.25002 15.9743C2.10118 15.2271 2.03772 14.275 1.95916 13.0962L1.53329 6.7082C1.50797 6.32841 1.79532 6.00001 2.17511 5.9747Z" fill="#3F3F3F"/>
</svg>
